<svg width="93" height="84" viewBox="0 0 93 84" fill="none" xmlns="http://www.w3.org/2000/svg">
<path d="M61.4026 31.2061C54.3069 25.5862 44.7224 21.3234 35.6577 22.818C34.4608 29.8037 35.7269 37.6793 37.4694 43.9509C40.395 54.4886 50.7787 66.7844 63.2157 61.5942C77.2258 55.7476 70.0052 38.0199 61.4026 31.2061ZM45.1733 61.3698C35.1608 54.2387 30.2263 37.2983 32.5092 23.5836C31.6943 23.8493 30.884 24.1494 30.0851 24.5245C9.68717 34.1001 11.188 59.8722 13.7186 78.3937C13.7496 78.6193 13.7241 78.8237 13.6737 79.0152L13.9999 79.3307C14.467 75.685 15.3983 72.2586 16.8993 68.7434C17.6463 66.9922 20.4961 67.9237 19.7449 69.684C17.9354 73.9202 16.9537 78.0458 16.6984 82.6584C16.622 84.0385 14.9837 84.3862 14.0798 83.5398C9.2688 79.035 4.80911 74.2709 0.637149 69.1777C-0.585616 67.6863 1.52558 65.8657 2.88284 67.2211C5.3287 69.6629 7.77545 72.1062 10.2211 74.5494C8.08438 56.2503 8.29329 35.0923 25.339 23.8251C27.7477 22.2322 30.3934 21.1439 33.1675 20.4931C34.2268 16.3995 35.997 12.7116 38.5558 9.83147C54.1662 -7.74293 79.7252 2.23462 92.4808 17.6266C93.4374 18.7795 91.757 20.2498 90.7266 19.1554C77.8765 5.47827 51.7208 -5.83269 38.7066 14.5227C37.641 16.1883 36.867 18.0217 36.3101 19.9551C51.1176 18.2603 68.3189 27.9924 72.9576 41.8256C78.9381 59.6556 60.074 71.9847 45.1733 61.3698Z" fill="#8DD9E5"/>
<path d="M61.4026 31.2061C54.3069 25.5862 44.7224 21.3234 35.6577 22.818C34.4608 29.8037 35.7269 37.6793 37.4694 43.9509C40.395 54.4886 50.7787 66.7844 63.2157 61.5942C77.2258 55.7476 70.0052 38.0199 61.4026 31.2061ZM45.1733 61.3698C35.1608 54.2387 30.2263 37.2983 32.5092 23.5836C31.6943 23.8493 30.884 24.1494 30.0851 24.5245C9.68717 34.1001 11.188 59.8722 13.7186 78.3937C13.7496 78.6193 13.7241 78.8237 13.6737 79.0152L13.9999 79.3307C14.467 75.685 15.3983 72.2586 16.8993 68.7434C17.6463 66.9922 20.4961 67.9237 19.7449 69.684C17.9354 73.9202 16.9537 78.0458 16.6984 82.6584C16.622 84.0385 14.9837 84.3862 14.0798 83.5398C9.2688 79.035 4.80911 74.2709 0.637149 69.1777C-0.585616 67.6863 1.52558 65.8657 2.88284 67.2211C5.3287 69.6629 7.77545 72.1062 10.2211 74.5494C8.08438 56.2503 8.29329 35.0923 25.339 23.8251C27.7477 22.2322 30.3934 21.1439 33.1675 20.4931C34.2268 16.3995 35.997 12.7116 38.5558 9.83147C54.1662 -7.74293 79.7252 2.23462 92.4808 17.6266C93.4374 18.7795 91.757 20.2498 90.7266 19.1554C77.8765 5.47827 51.7208 -5.83269 38.7066 14.5227C37.641 16.1883 36.867 18.0217 36.3101 19.9551C51.1176 18.2603 68.3189 27.9924 72.9576 41.8256C78.9381 59.6556 60.074 71.9847 45.1733 61.3698Z" fill="#5879E8"/>
</svg>
