<svg width="24" height="24" viewBox="0 0 24 24" fill="none" xmlns="http://www.w3.org/2000/svg">
<path d="M12 24C18.6274 24 24 18.6274 24 12C24 5.37258 18.6274 0 12 0C5.37258 0 0 5.37258 0 12C0 18.6274 5.37258 24 12 24Z" fill="white"/>
<path fill-rule="evenodd" clip-rule="evenodd" d="M11.8496 15.9665H12.6865C12.6865 15.9665 12.9393 15.9387 13.0683 15.7994C13.1871 15.6714 13.1833 15.4312 13.1833 15.4312C13.1833 15.4312 13.167 14.3064 13.6881 14.1408C14.2018 13.9777 14.8615 15.2279 15.5608 15.7085C16.0895 16.0724 16.4913 15.9926 16.4913 15.9926L18.3609 15.9665C18.3609 15.9665 19.339 15.9062 18.8752 15.1359C18.8372 15.0729 18.6051 14.5661 17.4851 13.5248C16.3128 12.4349 16.4698 12.6112 17.882 10.7259C18.742 9.57774 19.0858 8.87678 18.9784 8.57656C18.876 8.29062 18.2434 8.36619 18.2434 8.36619L16.1383 8.37933C16.1383 8.37933 15.9823 8.35801 15.8666 8.4273C15.7535 8.49527 15.6807 8.65366 15.6807 8.65366C15.6807 8.65366 15.3475 9.54214 14.9031 10.2977C13.9658 11.8921 13.591 11.9763 13.4378 11.8773C13.0814 11.6465 13.1704 10.9503 13.1704 10.4557C13.1704 8.91067 13.4043 8.26644 12.7148 8.09967C12.486 8.04427 12.3176 8.00772 11.7324 8.00182C10.9813 7.99401 10.3455 8.0041 9.98554 8.18077C9.74607 8.29823 9.56133 8.56 9.67385 8.57504C9.81297 8.59369 10.1281 8.66013 10.2952 8.88801C10.5109 9.18195 10.5033 9.84217 10.5033 9.84217C10.5033 9.84217 10.6272 11.661 10.2138 11.887C9.93005 12.0419 9.5408 11.7255 8.70511 10.2791C8.27691 9.53814 7.95362 8.71915 7.95362 8.71915C7.95362 8.71915 7.89128 8.56609 7.78009 8.48423C7.64515 8.38504 7.45661 8.35344 7.45661 8.35344L5.45623 8.36658C5.45623 8.36658 5.15594 8.37495 5.0457 8.50574C4.94763 8.62206 5.03791 8.86269 5.03791 8.86269C5.03791 8.86269 6.604 12.5327 8.37726 14.3822C10.0032 16.0779 11.8496 15.9665 11.8496 15.9665Z" fill="#122659"/>
</svg>
